HIERARCHY
ROOT hip
{
  OFFSET 0 0 0
  CHANNELS 6 Xposition Yposition Zposition Zrotation Yrotation Xrotation
  JOINT abdomen
  {
    OFFSET 0 20.6881 -0.73152
    CHANNELS 3 Zrotation Xrotation Yrotation
    JOINT chest
    {
      OFFSET 0 11.7043 -0.48768
      CHANNELS 3 Zrotation Xrotation Yrotation
      JOINT neck
      {
        OFFSET 0 22.1894 -2.19456
        CHANNELS 3 Zrotation Xrotation Yrotation
        JOINT head
        {
          OFFSET -0.24384 7.07133 1.2192
          CHANNELS 3 Zrotation Xrotation Yrotation
          JOINT leftEye
          {
            OFFSET 4.14528 8.04674 8.04672
            CHANNELS 3 Zrotation Xrotation Yrotation
            End Site
            {
              OFFSET 1 0 0
            }
          }
          JOINT rightEye
          {
            OFFSET -3.6576 8.04674 8.04672
            CHANNELS 3 Zrotation Xrotation Yrotation
            End Site
            {
              OFFSET 1 0 0
            }
          }
        }
      }
      JOINT rCollar
      {
        OFFSET -2.68224 19.2634 -4.8768
        CHANNELS 3 Zrotation Xrotation Yrotation
        JOINT rShldr
        {
          OFFSET -8.77824 -1.95073 1.46304
          CHANNELS 3 Zrotation Xrotation Yrotation
          JOINT rForeArm
          {
            OFFSET -28.1742 -1.7115 0.48768
            CHANNELS 3 Zrotation Xrotation Yrotation
            JOINT rHand
            {
              OFFSET -22.5879 0.773209 7.07136
              CHANNELS 3 Zrotation Xrotation Yrotation
              JOINT rThumb1
              {
                OFFSET -1.2192 -0.487915 3.41376
                CHANNELS 3 Zrotation Xrotation Yrotation
                JOINT rThumb2
                {
                  OFFSET -3.37035 -0.52449 3.41376
                  CHANNELS 3 Zrotation Xrotation Yrotation
                  End Site
                  {
                    OFFSET -1.78271 -1.18214 1.43049
                  }
                }
              }
              JOINT rIndex1
              {
                OFFSET -7.75947 0.938293 5.60832
                CHANNELS 3 Zrotation Xrotation Yrotation
                JOINT rIndex2
                {
                  OFFSET -2.54057 -0.884171 1.56538
                  CHANNELS 3 Zrotation Xrotation Yrotation
                  End Site
                  {
                    OFFSET -1.62519 -0.234802 1.16502
                  }
                }
              }
              JOINT rMid1
              {
                OFFSET -8.24714 1.18213 3.41376
                CHANNELS 3 Zrotation Xrotation Yrotation
                JOINT rMid2
                {
                  OFFSET -3.10165 -0.590103 1.0647
                  CHANNELS 3 Zrotation Xrotation Yrotation
                  End Site
                  {
                    OFFSET -2.48547 -0.328903 0.83742
                  }
                }
              }
              JOINT rRing1
              {
                OFFSET -8.82822 0.546677 1.51678
                CHANNELS 3 Zrotation Xrotation Yrotation
                JOINT rRing2
                {
                  OFFSET -2.60934 -0.819778 -0.0198488
                  CHANNELS 3 Zrotation Xrotation Yrotation
                  End Site
                  {
                    OFFSET -2.33842 -0.294052 0.168128
                  }
                }
              }
              JOINT rPinky1
              {
                OFFSET -8.27202 -0.0477905 -0.4584
                CHANNELS 3 Zrotation Xrotation Yrotation
                JOINT rPinky2
                {
                  OFFSET -1.82734 -0.647385 -0.700984
                  CHANNELS 3 Zrotation Xrotation Yrotation
                  End Site
                  {
                    OFFSET -1.69225 -0.51767 -0.607171
                  }
                }
              }
            }
          }
        }
      }
      JOINT lCollar
      {
        OFFSET 2.68224 19.2634 -4.8768
        CHANNELS 3 Zrotation Xrotation Yrotation
        JOINT lShldr
        {
          OFFSET 8.77824 -1.95073 1.46304
          CHANNELS 3 Zrotation Xrotation Yrotation
          JOINT lForeArm
          {
            OFFSET 28.1742 -1.7115 0.48768
            CHANNELS 3 Zrotation Xrotation Yrotation
            JOINT lHand
            {
              OFFSET 22.5879 0.773209 7.07136
              CHANNELS 3 Zrotation Xrotation Yrotation
              JOINT lThumb1
              {
                OFFSET 1.2192 -0.487915 3.41376
                CHANNELS 3 Zrotation Xrotation Yrotation
                JOINT lThumb2
                {
                  OFFSET 3.37035 -0.52449 3.41376
                  CHANNELS 3 Zrotation Xrotation Yrotation
                  End Site
                  {
                    OFFSET 1.78271 -1.18214 1.43049
                  }
                }
              }
              JOINT lIndex1
              {
                OFFSET 7.75947 0.938293 5.60832
                CHANNELS 3 Zrotation Xrotation Yrotation
                JOINT lIndex2
                {
                  OFFSET 2.54057 -0.884171 1.56538
                  CHANNELS 3 Zrotation Xrotation Yrotation
                  End Site
                  {
                    OFFSET 1.62519 -0.234802 1.16502
                  }
                }
              }
              JOINT lMid1
              {
                OFFSET 8.24714 1.18213 3.41376
                CHANNELS 3 Zrotation Xrotation Yrotation
                JOINT lMid2
                {
                  OFFSET 3.10165 -0.590103 1.0647
                  CHANNELS 3 Zrotation Xrotation Yrotation
                  End Site
                  {
                    OFFSET 2.48547 -0.328903 0.83742
                  }
                }
              }
              JOINT lRing1
              {
                OFFSET 8.82822 0.546677 1.51678
                CHANNELS 3 Zrotation Xrotation Yrotation
                JOINT lRing2
                {
                  OFFSET 2.60934 -0.819778 -0.0198488
                  CHANNELS 3 Zrotation Xrotation Yrotation
                  End Site
                  {
                    OFFSET 2.33842 -0.294052 0.168128
                  }
                }
              }
              JOINT lPinky1
              {
                OFFSET 8.27202 -0.0477905 -0.4584
                CHANNELS 3 Zrotation Xrotation Yrotation
                JOINT lPinky2
                {
                  OFFSET 1.82734 -0.647385 -0.700984
                  CHANNELS 3 Zrotation Xrotation Yrotation
                  End Site
                  {
                    OFFSET 1.69225 -0.51767 -0.607171
                  }
                }
              }
            }
          }
        }
      }
    }
  }
  JOINT rButtock
  {
    OFFSET -8.77824 4.35084 1.2192
    CHANNELS 3 Zrotation Xrotation Yrotation
    JOINT rThigh
    {
      OFFSET 0 -1.70687 -2.19456
      CHANNELS 3 Zrotation Xrotation Yrotation
      JOINT rShin
      {
        OFFSET 0 -36.8199 0.73152
        CHANNELS 3 Zrotation Xrotation Yrotation
        JOINT rFoot
        {
          OFFSET 0.73152 -45.1104 -5.12064
          CHANNELS 3 Zrotation Xrotation Yrotation
          End Site
          {
            OFFSET -1.1221 -3.69964 12.103
          }
        }
      }
    }
  }
  JOINT lButtock
  {
    OFFSET 8.77824 4.35084 1.2192
    CHANNELS 3 Zrotation Xrotation Yrotation
    JOINT lThigh
    {
      OFFSET 0 -1.70687 -2.19456
      CHANNELS 3 Zrotation Xrotation Yrotation
      JOINT lShin
      {
        OFFSET 0 -36.8199 0.73152
        CHANNELS 3 Zrotation Xrotation Yrotation
        JOINT lFoot
        {
          OFFSET -0.73152 -45.1104 -5.12064
          CHANNELS 3 Zrotation Xrotation Yrotation
          End Site
          {
            OFFSET 1.1221 -3.69964 12.103
          }
        }
      }
    }
  }
}
MOTION
Frames:	7
Frame Time:	0.00833333
-4.19204 83.1905 -81.2282 -398.348 8.1175 93.2456 -16.0564 14.6167 -6.97735 -1.10437 -10.8797 -2.62626 1.80555 -13.8569 3.24205 19.7849 -22.477 10.1305 -0.0 0.0 0.0 -0.0 0.0 0.0 3.08571e-13 -3.55427e-13 5.98143e-13 -33.5573 -28.4237 -12.854 -13.8132 -6.80461 25.1789 -0.0101833 2.87997 0.405098 3.34382e-09 -1.04705e-08 1.41824e-09 5.78041e-09 -1.79561e-08 2.43686e-09 3.34382e-09 -1.04705e-08 1.41824e-09 7.73091 5.47488 0.417314 3.34382e-09 -1.04706e-08 1.41825e-09 2.90554 0.965183 0.102902 3.34383e-09 -1.04705e-08 1.41824e-09 10.2786 0.731801 0.0259123 3.34381e-09 -1.04706e-08 1.41826e-09 2.22167 -0.733487 -0.20892 3.08526e-13 -3.55427e-13 5.97895e-13 24.8613 -23.7795 -21.6191 11.5838 -5.161 -20.8071 3.9066 -47.58 8.84744 5.18921e-09 2.9361e-09 -3.99834e-09 9.08034e-09 5.28013e-09 -6.70695e-09 5.18921e-09 2.9361e-09 -3.99833e-09 -7.73091 5.47488 -0.417314 5.18921e-09 2.9361e-09 -3.99834e-09 -2.90554 0.965183 -0.102902 5.1892e-09 2.9361e-09 -3.99834e-09 -10.2786 0.731801 -0.0259123 5.18921e-09 2.9361e-09 -3.99834e-09 -2.22167 -0.733487 0.20892 -2.03217e-16 0.0 -3.88251e-19 26.7227 -43.1725 -13.288 -0.4952 45.9743 0.757845 -3.59806 -0.318689 -19.3457 2.03217e-16 0.0 3.88251e-19 151.482 -56.7513 125.386 1.23967 61.6881 -1.43397 17.0445 -27.796 29.2964
-4.09018 83.1151 -81.9528 -398.7 6.4543 92.4513 -16.353 14.8824 -6.69681 -1.13682 -10.9991 -2.57866 1.82242 -13.6379 3.18775 19.9422 -22.3141 9.97631 -0.0 0.0 0.0 -0.0 0.0 0.0 2.99911e-13 -3.48682e-13 5.55343e-13 -31.5465 -28.258 -13.0569 -13.8194 -6.80948 25.1915 -0.0187035 3.84176 0.540691 3.49075e-09 -8.65042e-09 1.61333e-09 6.03555e-09 -1.48155e-08 2.7734e-09 3.49075e-09 -8.65042e-09 1.61333e-09 7.73091 5.47488 0.417314 3.49075e-09 -8.65043e-09 1.61334e-09 2.90554 0.965183 0.102902 3.49075e-09 -8.65042e-09 1.61333e-09 10.2786 0.731801 0.0259123 3.49074e-09 -8.65043e-09 1.61335e-09 2.22167 -0.733487 -0.20892 2.99884e-13 -3.4868e-13 5.55105e-13 26.3555 -19.6945 -19.584 11.959 -5.42849 -21.5155 4.44393 -49.762 9.56067 5.02282e-09 2.69786e-09 -3.99123e-09 8.79471e-09 4.86046e-09 -6.69882e-09 5.02282e-09 2.69786e-09 -3.99122e-09 -7.73091 5.47488 -0.417314 5.02282e-09 2.69785e-09 -3.99124e-09 -2.90554 0.965183 -0.102902 5.02282e-09 2.69786e-09 -3.99123e-09 -10.2786 0.731801 -0.0259123 5.02283e-09 2.69786e-09 -3.99124e-09 -2.22167 -0.733487 0.20892 -2.03217e-16 0.0 -3.88251e-19 27.2197 -43.8264 -12.5753 -0.47643 45.4184 0.75492 -3.4738 -0.218553 -19.2077 2.03217e-16 0.0 3.88251e-19 150.656 -56.9695 125.174 1.25554 61.9682 -1.47612 17.003 -27.2967 29.5073
-3.95516 83.1141 -82.8085 -399.01 4.8675 92.1517 -16.6826 15.0737 -6.31623 -1.17525 -11.0967 -2.50373 1.69359 -13.3948 3.06297 20.51 -22.2328 9.86145 -0.0 0.0 0.0 -0.0 0.0 0.0 2.4015e-13 -2.62248e-13 3.90789e-13 -29.5863 -27.8451 -13.3041 -13.8182 -6.80844 25.1895 -0.0276636 4.73379 0.666741 3.09481e-09 -7.44024e-09 1.4851e-09 5.35284e-09 -1.27457e-08 2.55219e-09 3.09481e-09 -7.44024e-09 1.48509e-09 7.73091 5.47488 0.417314 3.09481e-09 -7.44025e-09 1.4851e-09 2.90554 0.965183 0.102902 3.09482e-09 -7.44024e-09 1.4851e-09 10.2786 0.731801 0.0259123 3.09481e-09 -7.44025e-09 1.48511e-09 2.22167 -0.733487 -0.20892 2.40154e-13 -2.62246e-13 3.90578e-13 27.574 -15.1476 -17.6792 12.4669 -5.7929 -22.4978 5.01243 -51.8371 10.2972 4.01312e-09 1.95541e-09 -3.2727e-09 7.03407e-09 3.53615e-09 -5.49148e-09 4.01312e-09 1.95541e-09 -3.27269e-09 -7.73091 5.47488 -0.417314 4.01311e-09 1.95541e-09 -3.27271e-09 -2.90554 0.965183 -0.102902 4.01312e-09 1.95541e-09 -3.2727e-09 -10.2786 0.731801 -0.0259123 4.01312e-09 1.95541e-09 -3.27271e-09 -2.22167 -0.733487 0.20892 -2.03217e-16 0.0 -3.88251e-19 27.7923 -44.4684 -11.4586 -0.462619 44.9887 0.753632 -3.40917 -0.109102 -19.4693 2.03217e-16 0.0 3.88251e-19 149.777 -57.2659 124.727 1.26497 62.1526 -1.50528 16.9816 -26.6847 29.8274
-3.96045 83.2183 -83.5942 -399.647 3.4905 91.7793 -16.9585 15.1914 -5.91719 -1.21353 -11.1638 -2.4189 1.4877 -13.1472 2.90315 21.1907 -22.2094 9.75082 -0.0 0.0 0.0 -0.0 0.0 0.0 1.5972e-13 -1.57699e-13 2.09759e-13 -27.7057 -27.3888 -13.5689 -13.8266 -6.8152 25.2065 -0.0374509 5.54474 0.781662 2.56038e-09 -6.66712e-09 1.28933e-09 4.43118e-09 -1.14351e-08 2.21419e-09 2.56039e-09 -6.66713e-09 1.28932e-09 7.73091 5.47488 0.417314 2.56038e-09 -6.66713e-09 1.28933e-09 2.90554 0.965183 0.102902 2.56039e-09 -6.66712e-09 1.28933e-09 10.2786 0.731801 0.0259123 2.56038e-09 -6.66712e-09 1.28933e-09 2.22167 -0.733487 -0.20892 1.59745e-13 -1.57698e-13 2.09581e-13 28.1463 -10.8463 -16.0962 13.0046 -6.18518 -23.5612 5.5646 -53.6259 10.9931 2.81203e-09 1.11677e-09 -2.33917e-09 4.93666e-09 2.03672e-09 -3.91956e-09 2.81202e-09 1.11677e-09 -2.33915e-09 -7.73091 5.47488 -0.417314 2.81202e-09 1.11676e-09 -2.33918e-09 -2.90554 0.965183 -0.102902 2.81202e-09 1.11677e-09 -2.33917e-09 -10.2786 0.731801 -0.0259123 2.81203e-09 1.11677e-09 -2.33917e-09 -2.22167 -0.733487 0.20892 -2.03217e-16 0.0 -3.88251e-19 28.2793 -45.1178 -10.3101 -0.4513 44.612 0.750621 -3.32171 0.093018 -19.7488 2.03217e-16 0.0 3.88251e-19 149.0 -57.6703 124.234 1.26878 62.2518 -1.52354 16.9796 -26.0132 30.2274
-3.71041 83.222 -84.2495 -399.125 2.5343 91.6237 -17.0934 15.2369 -5.58159 -1.24568 -11.1916 -2.34166 1.27264 -12.9149 2.74355 21.687 -22.2203 9.60952 -0.0 0.0 0.0 -0.0 0.0 0.0 8.90497e-14 -9.66093e-14 1.17531e-13 -25.9387 -27.0918 -13.8256 -13.8616 -6.8434 25.2761 -0.0483559 6.2633 0.883807 2.29184e-09 -6.15818e-09 1.2818e-09 3.96947e-09 -1.0572e-08 2.20034e-09 2.29185e-09 -6.15818e-09 1.2818e-09 7.73091 5.47488 0.417314 2.29184e-09 -6.15819e-09 1.2818e-09 2.90554 0.965183 0.102902 2.29185e-09 -6.15818e-09 1.2818e-09 10.2786 0.731801 0.0259123 2.29184e-09 -6.15818e-09 1.2818e-09 2.22167 -0.733487 -0.20892 8.90672e-14 -9.66097e-14 1.17382e-13 27.8327 -7.53345 -14.9414 13.4788 -6.54152 -24.5112 6.02502 -54.9511 11.5574 2.07147e-09 5.89936e-10 -1.68704e-09 3.64073e-09 1.09167e-09 -2.81768e-09 2.07146e-09 5.89936e-10 -1.68702e-09 -7.73091 5.47488 -0.417314 2.07146e-09 5.89929e-10 -1.68705e-09 -2.90554 0.965183 -0.102902 2.07147e-09 5.89939e-10 -1.68704e-09 -10.2786 0.731801 -0.0259123 2.07147e-09 5.89941e-10 -1.68705e-09 -2.22167 -0.733487 0.20892 -2.03217e-16 0.0 -3.88251e-19 28.5 -45.8069 -9.51725 -0.440151 44.2147 0.742662 -3.13247 0.472394 -19.665 2.03217e-16 0.0 3.88251e-19 148.482 -58.2165 123.891 1.26805 62.2767 -1.53327 16.9985 -25.3349 30.6779
-3.55955 83.1737 -84.6645 -398.758 1.0896 90.8297 -17.0259 15.1885 -5.36108 -1.27594 -11.167 -2.28303 1.03706 -12.6828 2.57928 21.953 -22.2787 9.42395 -0.0 0.0 0.0 -0.0 0.0 0.0 1.84248e-14 -1.01971e-13 1.59843e-13 -24.265 -27.1788 -14.0818 -13.9372 -6.90435 25.427 -0.0617187 7.0196 0.991623 2.36019e-09 -5.99531e-09 1.56186e-09 4.09108e-09 -1.02931e-08 2.68134e-09 2.36019e-09 -5.99531e-09 1.56185e-09 7.73091 5.47488 0.417314 2.36018e-09 -5.99531e-09 1.56185e-09 2.90554 0.965183 0.102902 2.36019e-09 -5.99531e-09 1.56186e-09 10.2786 0.731801 0.0259123 2.36019e-09 -5.99531e-09 1.56186e-09 2.22167 -0.733487 -0.20892 1.8383e-14 -1.01971e-13 1.59723e-13 26.6044 -5.51177 -14.1848 13.8869 -6.8629 -25.3272 6.39894 -55.9236 12.0047 1.95985e-09 5.20937e-10 -1.37575e-09 3.43782e-09 9.58276e-10 -2.28193e-09 1.95984e-09 5.20937e-10 -1.37573e-09 -7.73091 5.47488 -0.417314 1.95984e-09 5.20932e-10 -1.37576e-09 -2.90554 0.965183 -0.102902 1.95985e-09 5.2094e-10 -1.37575e-09 -10.2786 0.731801 -0.0259123 1.95986e-09 5.20944e-10 -1.37575e-09 -2.22167 -0.733487 0.20892 -2.03217e-16 0.0 -3.88251e-19 28.3451 -46.5931 -9.22316 -0.429688 43.7988 0.728415 -2.81154 1.10009 -19.0741 2.03217e-16 0.0 3.88251e-19 148.411 -58.9536 123.818 1.26345 62.2303 -1.53309 17.0195 -24.5988 31.1869
-3.37751 83.3661 -85.3909 -398.918 -0.5865 90.9761 -16.8134 15.0529 -5.20259 -1.3058 -11.0984 -2.23161 0.754957 -12.447 2.39637 22.1352 -22.3908 9.21384 -0.0 0.0 0.0 -0.0 0.0 0.0 -6.2441e-14 -1.38753e-13 2.74658e-13 -22.6811 -27.4838 -14.3485 -14.0406 -6.98788 25.6347 -0.076502 7.77529 1.09973 2.56203e-09 -6.22804e-09 1.98269e-09 4.44427e-09 -1.06913e-08 3.40432e-09 2.56203e-09 -6.22804e-09 1.98269e-09 7.73091 5.47488 0.417314 2.56203e-09 -6.22805e-09 1.98269e-09 2.90554 0.965183 0.102902 2.56204e-09 -6.22804e-09 1.98269e-09 10.2786 0.731801 0.0259123 2.56203e-09 -6.22804e-09 1.98269e-09 2.22167 -0.733487 -0.20892 -6.25769e-14 -1.38752e-13 2.74571e-13 24.74 -4.39872 -13.686 14.2732 -7.17809 -26.1023 6.66969 -56.5893 12.3254 2.13129e-09 6.79761e-10 -1.16485e-09 3.72488e-09 1.22656e-09 -1.90935e-09 2.13128e-09 6.79762e-10 -1.16484e-09 -7.73091 5.47488 -0.417314 2.13129e-09 6.79757e-10 -1.16486e-09 -2.90554 0.965183 -0.102902 2.13128e-09 6.79763e-10 -1.16485e-09 -10.2786 0.731801 -0.0259123 2.1313e-09 6.79769e-10 -1.16486e-09 -2.22167 -0.733487 0.20892 -2.03217e-16 0.0 -3.88251e-19 27.9087 -47.4478 -9.22531 -0.420985 43.3962 0.709901 -2.42347 1.92126 -18.1958 2.03217e-16 0.0 3.88251e-19 148.659 -59.853 123.889 1.25416 62.1069 -1.52231 17.0417 -23.8003 31.7641
